<svg xmlns="http://www.w3.org/2000/svg" width="70" height="30" viewBox="0 0 70 30">
  <metadata><?xpacket begin="﻿" id="W5M0MpCehiHzreSzNTczkc9d"?>
<x:xmpmeta xmlns:x="adobe:ns:meta/" x:xmptk="Adobe XMP Core 5.6-c140 79.160451, 2017/05/06-01:08:21        ">
   <rdf:RDF xmlns:rdf="http://www.w3.org/1999/02/22-rdf-syntax-ns#">
      <rdf:Description rdf:about=""/>
   </rdf:RDF>
</x:xmpmeta>
                                                                                                    
                                                                                                    
                                                                                                    
                                                                                                    
                                                                                                    
                                                                                                    
                                                                                                    
                                                                                                    
                                                                                                    
                                                                                                    
                                                                                                    
                                                                                                    
                                                                                                    
                                                                                                    
                                                                                                    
                                                                                                    
                                                                                                    
                                                                                                    
                                                                                                    
                                                                                                    
                           
<?xpacket end="w"?></metadata>
<defs>
    <style>
      .cls-1 {
        fill: #fff;
        fill-rule: evenodd;
      }
    </style>
  </defs>
  <path id="aura" class="cls-1" d="M11.471,19.207A3.793,3.793,0,0,1,8.7,18.019a4.377,4.377,0,0,1-1.188-3.24A4.314,4.314,0,0,1,8.69,11.566a3.879,3.879,0,0,1,5.548.014,4.332,4.332,0,0,1,1.188,3.226,4.332,4.332,0,0,1-1.188,3.227A3.816,3.816,0,0,1,11.471,19.207ZM10.7,22.5a5.3,5.3,0,0,0,4.725-2.727v2.511h3.78V7.327h-3.78V9.649a5.238,5.238,0,0,0-4.7-2.538A6.632,6.632,0,0,0,5.653,9.258a7.781,7.781,0,0,0-2,5.522,7.847,7.847,0,0,0,2.011,5.549A6.574,6.574,0,0,0,10.7,22.5Zm22.329-6.939a3.751,3.751,0,0,1-.9,2.7,3.223,3.223,0,0,1-2.443.945,3.178,3.178,0,0,1-2.43-.945,3.786,3.786,0,0,1-.891-2.7V7.327h-3.78V16.1a6.486,6.486,0,0,0,1.62,4.685,5.51,5.51,0,0,0,4.158,1.688,4.987,4.987,0,0,0,4.671-2.457v2.268h3.807V7.327H33.031v8.235Zm7.317-8.235V22.285h3.807V14.779a4.025,4.025,0,0,1,.864-2.929A3.514,3.514,0,0,1,47.584,11h0.945V7.111a4.745,4.745,0,0,0-4.374,2.862V7.327H40.348Zm17.1,11.88a3.793,3.793,0,0,1-2.767-1.188,4.377,4.377,0,0,1-1.188-3.24,4.314,4.314,0,0,1,1.175-3.213,3.879,3.879,0,0,1,5.548.014,4.332,4.332,0,0,1,1.188,3.226,4.332,4.332,0,0,1-1.188,3.227A3.816,3.816,0,0,1,57.452,19.207ZM56.683,22.5a5.3,5.3,0,0,0,4.725-2.727v2.511h3.78V7.327h-3.78V9.649a5.238,5.238,0,0,0-4.7-2.538,6.632,6.632,0,0,0-5.076,2.147,7.781,7.781,0,0,0-2,5.522,7.847,7.847,0,0,0,2.011,5.549A6.574,6.574,0,0,0,56.683,22.5Z"/>
</svg>
