<svg xmlns="http://www.w3.org/2000/svg" width="1920" height="335" viewBox="0 0 1920 335">
  <metadata><?xpacket begin="﻿" id="W5M0MpCehiHzreSzNTczkc9d"?>
<x:xmpmeta xmlns:x="adobe:ns:meta/" x:xmptk="Adobe XMP Core 5.6-c140 79.160451, 2017/05/06-01:08:21        ">
   <rdf:RDF xmlns:rdf="http://www.w3.org/1999/02/22-rdf-syntax-ns#">
      <rdf:Description rdf:about=""/>
   </rdf:RDF>
</x:xmpmeta>
                                                                                                    
                                                                                                    
                                                                                                    
                                                                                                    
                                                                                                    
                                                                                                    
                                                                                                    
                                                                                                    
                                                                                                    
                                                                                                    
                                                                                                    
                                                                                                    
                                                                                                    
                                                                                                    
                                                                                                    
                                                                                                    
                                                                                                    
                                                                                                    
                                                                                                    
                                                                                                    
                           
<?xpacket end="w"?></metadata>
<defs>
    <style>
      .cls-1, .cls-2, .cls-3 {
        fill: #fff;
        fill-rule: evenodd;
      }

      .cls-1 {
        opacity: 0.5;
      }

      .cls-2 {
        opacity: 0.4;
      }
    </style>
  </defs>
  <path id="Şekil_1" data-name="Şekil 1" class="cls-1" d="M1573.68,438.416c-88.24,25.87-177.56,50.811-266.83,60.048q-16.74,1.734-33.49,2.682-8.37.466-16.75,0.719t-16.75.277a557.873,557.873,0,0,1-67.01-3.741c-44.68-5.266-69.62-8.277-114.25-26.947,0,0.047.01,0.094,0.01,0.141-355.8-148.342-717.69,74.239-1072.631,44.671-0.589-98.989-.379-211-0.971-306.906,183.562,98.489,364.85,55.618,533.7,4.459,84.179-26.151,162.248-58.311,240.834-75.474,78.6-17.237,161.411-15.1,260.588,30.326,193.34,86.819,342.15,43.076,488.01-23.635,73.56-32.962,141.53-73.988,213.45-103.365,36.27-14.419,73.53-25.9,114.87-30.48q7.755-.859,15.7-1.388,3.975-.262,8.01-0.438c2.68-.117,5.39-0.2,8.11-0.26,10.89-.225,22.09.037,33.63,0.85a435.525,435.525,0,0,1,73.89,11.927c97.69,173.134,124.48,289.384,132.19,390.775C1919.93,327.707,1749.95,386.831,1573.68,438.416Z"/>
  <path id="Şekil_2" data-name="Şekil 2" class="cls-2" d="M1569.74,429.723C1395,478.528,1243.01,540.2,1063.94,480.175l-0.01-.084c-179.776-77.755-355.383-25.2-532.372,26.46-88.441,25.875-176.966,51.7-265.687,61.432a656.038,656.038,0,0,1-66.588,4.031q-16.659.128-33.331-.72T132.593,568.5A473.55,473.55,0,0,1-1.17,532.8Q-3.089,389.715-5.008,246.63c176.909,75.931,356.833,34.788,527.625-16.562,172.44-50.287,335.854-110.786,517.6-49.036,175.63,66,335.74,11.406,486.69-49.625,79.4-31.7,156.1-65.133,239.93-78.023a460.46,460.46,0,0,1,64.53-5.358q16.56-.188,33.61.9,17.055,1.109,34.62,3.608c46.81,6.688,96.66,21.311,148.8,45.39,34.38,116.709,47.83,219.94,53.6,318.219C1917.83,335.537,1745.11,381.321,1569.74,429.723Z"/>
  <path id="Şekil_3" data-name="Şekil 3" class="cls-3" d="M1035.1,478.2C672.629,338.6,357.838,720.388-4.635,580.792Q-12.318,438-20,295.206C342.472,434.8,676.444,60.027,1038.92,199.622S1717.16-42.348,2079.63,97.248q7.68,142.792,15.37,285.587C1732.53,243.239,1397.57,617.793,1035.1,478.2Z"/>
  <path id="Dikdörtgen_1" data-name="Dikdörtgen 1" class="cls-3" d="M-36.7,412.191l2154.5-72.308L2132,849H-39Z"/>
</svg>
