<svg xmlns="http://www.w3.org/2000/svg" width="1920" height="335" viewBox="0 0 1920 335">
  <metadata><?xpacket begin="﻿" id="W5M0MpCehiHzreSzNTczkc9d"?>
<x:xmpmeta xmlns:x="adobe:ns:meta/" x:xmptk="Adobe XMP Core 5.6-c140 79.160451, 2017/05/06-01:08:21        ">
   <rdf:RDF xmlns:rdf="http://www.w3.org/1999/02/22-rdf-syntax-ns#">
      <rdf:Description rdf:about=""/>
   </rdf:RDF>
</x:xmpmeta>
                                                                                                    
                                                                                                    
                                                                                                    
                                                                                                    
                                                                                                    
                                                                                                    
                                                                                                    
                                                                                                    
                                                                                                    
                                                                                                    
                                                                                                    
                                                                                                    
                                                                                                    
                                                                                                    
                                                                                                    
                                                                                                    
                                                                                                    
                                                                                                    
                                                                                                    
                                                                                                    
                           
<?xpacket end="w"?></metadata>
<defs>
    <style>
      .cls-1, .cls-2, .cls-3 {
        fill: #fff;
        fill-rule: evenodd;
      }

      .cls-1 {
        opacity: 0.5;
      }

      .cls-2 {
        opacity: 0.4;
      }
    </style>
  </defs>
  <path id="Şekil_1" data-name="Şekil 1" class="cls-1" d="M399.323-97.416c88.242-25.87,177.558-50.811,266.825-60.048q16.745-1.734,33.493-2.682,8.373-.467,16.749-0.719t16.75-.277a557.941,557.941,0,0,1,67.012,3.741c44.674,5.266,69.619,8.277,114.252,26.947l-0.018-.141c355.8,148.342,717.694-74.239,1072.634-44.671,0.59,98.989.38,211,.97,306.906-183.56-98.489-364.85-55.618-533.7-4.459-84.18,26.151-162.25,58.311-240.83,75.474-78.6,17.237-161.41,15.1-260.588-30.326C759.527,85.51,610.716,129.253,464.859,195.964,391.3,228.926,323.326,269.952,251.411,299.33c-36.274,14.419-73.534,25.9-114.873,30.48q-7.75.858-15.7,1.388-3.976.261-8,.438t-8.114.259c-10.892.226-22.088-.037-33.635-0.85A435.466,435.466,0,0,1-2.8,319.118C-100.493,145.984-127.281,29.734-134.99-71.657,53.072,13.293,223.047-45.831,399.323-97.416Z"/>
  <path id="Şekil_2" data-name="Şekil 2" class="cls-2" d="M403.257-88.723C578-137.528,729.99-199.2,909.059-139.175l0.006,0.084c179.785,77.755,355.385,25.2,532.375-26.46,88.44-25.875,176.97-51.7,265.69-61.432a656.06,656.06,0,0,1,66.59-4.031q16.65-.127,33.33.72t33.36,2.794a473.629,473.629,0,0,1,133.76,35.7q1.92,143.083,3.84,286.168c-176.91-75.93-356.84-34.787-527.63,16.562-172.44,50.287-335.85,110.786-517.6,49.036-175.629-66-335.746-11.406-486.689,49.625-79.4,31.7-156.106,65.133-239.932,78.023a460.494,460.494,0,0,1-64.528,5.358q-16.564.188-33.611-.9Q90.97,290.965,73.4,288.466c-46.817-6.687-96.664-21.311-148.8-45.39C-109.778,126.367-123.233,23.136-129-75.143,55.171,5.463,227.89-40.321,403.257-88.723Z"/>
  <path id="Şekil_3" data-name="Şekil 3" class="cls-3" d="M937.9-137.2C1300.37,2.4,1615.16-379.388,1977.63-239.792Q1985.325-97,1993,45.794C1630.53-93.8,1296.56,280.973,934.083,141.378S255.84,383.348-106.633,243.752Q-114.316,100.961-122-41.834C240.475,97.761,575.426-276.793,937.9-137.2Z"/>
  <path id="Dikdörtgen_1" data-name="Dikdörtgen 1" class="cls-3" d="M2009.7-71.191L-144.8,1.117-159-508H2012Z"/>
</svg>
